{
  "accessors": [
    {
      "name": "AM84_027_10_1_positions",
      "componentType": 5126,
      "count": 2160,
      "min": [
        -695.7536010742188,
        806.5919799804688,
        -51.69419860839844
      ],
      "max": [
        719.6998291015625,
        2051.4736328125,
        668.2623291015625
      ],
      "type": "VEC3",
      "bufferView": 0,
      "byteOffset": 0
    },
    {
      "name": "AM84_027_10_1_normals",
      "componentType": 5126,
      "count": 2160,
      "min": [
        -0.9980000257492065,
        -0.9553999900817871,
        -0.9811999797821045
      ],
      "max": [
        0.9980000257492065,
        0.9790999889373779,
        0.9811999797821045
      ],
      "type": "VEC3",
      "bufferView": 0,
      "byteOffset": 165480
    },
    {
      "name": "AM84_027_10_1_texcoords",
      "componentType": 5126,
      "count": 2160,
      "min": [
        0.00019999999494757503,
        0.46950000524520874
      ],
      "max": [
        1.0008000135421753,
        0.5891000032424927
      ],
      "type": "VEC2",
      "bufferView": 1,
      "byteOffset": 0
    },
    {
      "name": "AM84_027_10_1_0_indices",
      "componentType": 5123,
      "count": 4320,
      "min": [
        0
      ],
      "max": [
        2159
      ],
      "type": "SCALAR",
      "bufferView": 2,
      "byteOffset": 0
    },
    {
      "name": "AM84_027_09_1_positions",
      "componentType": 5126,
      "count": 2650,
      "min": [
        -695.752685546875,
        807.2045288085938,
        -425.5823059082031
      ],
      "max": [
        719.698974609375,
        2052.4638671875,
        712.1881103515625
      ],
      "type": "VEC3",
      "bufferView": 0,
      "byteOffset": 25920
    },
    {
      "name": "AM84_027_09_1_normals",
      "componentType": 5126,
      "count": 2650,
      "min": [
        -1,
        -1,
        -0.9908999800682068
      ],
      "max": [
        1,
        1,
        0.9961000084877014
      ],
      "type": "VEC3",
      "bufferView": 0,
      "byteOffset": 191400
    },
    {
      "name": "AM84_027_09_1_texcoords",
      "componentType": 5126,
      "count": 2650,
      "min": [
        0.0010000000474974513,
        0.003599999938160181
      ],
      "max": [
        0.9990000128746033,
        0.9990000128746033
      ],
      "type": "VEC2",
      "bufferView": 1,
      "byteOffset": 17280
    },
    {
      "name": "AM84_027_09_1_0_indices",
      "componentType": 5123,
      "count": 6510,
      "min": [
        0
      ],
      "max": [
        2649
      ],
      "type": "SCALAR",
      "bufferView": 2,
      "byteOffset": 8640
    },
    {
      "name": "AM84_027_08_1_positions",
      "componentType": 5126,
      "count": 2664,
      "min": [
        -662.6774291992188,
        829.69482421875,
        -45.22560119628906
      ],
      "max": [
        686.6237182617188,
        2017.184326171875,
        641.5844116210938
      ],
      "type": "VEC3",
      "bufferView": 0,
      "byteOffset": 57720
    },
    {
      "name": "AM84_027_08_1_normals",
      "componentType": 5126,
      "count": 2664,
      "min": [
        -0.9912999868392944,
        -0.8945000171661377,
        -0.8952000141143799
      ],
      "max": [
        0.9912999868392944,
        0.8945000171661377,
        0.8952000141143799
      ],
      "type": "VEC3",
      "bufferView": 0,
      "byteOffset": 223200
    },
    {
      "name": "AM84_027_08_1_texcoords",
      "componentType": 5126,
      "count": 2664,
      "min": [
        0.027799999341368675,
        0.46799999475479126
      ],
      "max": [
        1.0277999639511108,
        0.701200008392334
      ],
      "type": "VEC2",
      "bufferView": 1,
      "byteOffset": 38480
    },
    {
      "name": "AM84_027_08_1_0_indices",
      "componentType": 5123,
      "count": 7776,
      "min": [
        0
      ],
      "max": [
        2663
      ],
      "type": "SCALAR",
      "bufferView": 2,
      "byteOffset": 21660
    },
    {
      "name": "AM84_027_06_1_positions",
      "componentType": 5126,
      "count": 111,
      "min": [
        -206.72439575195312,
        1112.8363037109375,
        -299.9804992675781
      ],
      "max": [
        227.81829833984375,
        1204.2723388671875,
        -205.59730529785156
      ],
      "type": "VEC3",
      "bufferView": 0,
      "byteOffset": 89688
    },
    {
      "name": "AM84_027_06_1_normals",
      "componentType": 5126,
      "count": 111,
      "min": [
        -1,
        -0.9947999715805054,
        -1
      ],
      "max": [
        1,
        0.9947999715805054,
        1
      ],
      "type": "VEC3",
      "bufferView": 0,
      "byteOffset": 255168
    },
    {
      "name": "AM84_027_06_1_texcoords",
      "componentType": 5126,
      "count": 111,
      "min": [
        0,
        0
      ],
      "max": [
        1.0499999523162842,
        1
      ],
      "type": "VEC2",
      "bufferView": 1,
      "byteOffset": 59792
    },
    {
      "name": "AM84_027_06_1_0_indices",
      "componentType": 5123,
      "count": 240,
      "min": [
        0
      ],
      "max": [
        110
      ],
      "type": "SCALAR",
      "bufferView": 2,
      "byteOffset": 37212
    },
    {
      "name": "AM84_027_05_1_positions",
      "componentType": 5126,
      "count": 1757,
      "min": [
        -222.7592010498047,
        359.9841003417969,
        -506.2384948730469
      ],
      "max": [
        250.63819885253906,
        526.934814453125,
        -32.84109878540039
      ],
      "type": "VEC3",
      "bufferView": 0,
      "byteOffset": 91020
    },
    {
      "name": "AM84_027_05_1_normals",
      "componentType": 5126,
      "count": 1757,
      "min": [
        -1,
        -1,
        -1
      ],
      "max": [
        1,
        1,
        1
      ],
      "type": "VEC3",
      "bufferView": 0,
      "byteOffset": 256500
    },
    {
      "name": "AM84_027_05_1_texcoords",
      "componentType": 5126,
      "count": 1757,
      "min": [
        -13.064499855041504,
        -12.064499855041504
      ],
      "max": [
        13.064499855041504,
        14.064499855041504
      ],
      "type": "VEC2",
      "bufferView": 1,
      "byteOffset": 60680
    },
    {
      "name": "AM84_027_05_1_0_indices",
      "componentType": 5123,
      "count": 4644,
      "min": [
        0
      ],
      "max": [
        1756
      ],
      "type": "SCALAR",
      "bufferView": 2,
      "byteOffset": 37692
    },
    {
      "name": "AM84_027_04_1_positions",
      "componentType": 5126,
      "count": 292,
      "min": [
        -222.45199584960938,
        425.1908874511719,
        -505.9313049316406
      ],
      "max": [
        250.33099365234375,
        426.7998046875,
        -33.14830017089844
      ],
      "type": "VEC3",
      "bufferView": 0,
      "byteOffset": 112104
    },
    {
      "name": "AM84_027_04_1_normals",
      "componentType": 5126,
      "count": 292,
      "min": [
        -0.9998000264167786,
        -1,
        -0.9998000264167786
      ],
      "max": [
        0.9998000264167786,
        1,
        0.9998000264167786
      ],
      "type": "VEC3",
      "bufferView": 0,
      "byteOffset": 277584
    },
    {
      "name": "AM84_027_04_1_texcoords",
      "componentType": 5126,
      "count": 292,
      "min": [
        0.020800000056624413,
        0
      ],
      "max": [
        1.020799994468689,
        1
      ],
      "type": "VEC2",
      "bufferView": 1,
      "byteOffset": 74736
    },
    {
      "name": "AM84_027_04_1_0_indices",
      "componentType": 5123,
      "count": 864,
      "min": [
        0
      ],
      "max": [
        291
      ],
      "type": "SCALAR",
      "bufferView": 2,
      "byteOffset": 46980
    },
    {
      "name": "AM84_027_02_1_positions",
      "componentType": 5126,
      "count": 106,
      "min": [
        -218.4506072998047,
        428.3966064453125,
        -501.9299011230469
      ],
      "max": [
        246.32960510253906,
        428.3966064453125,
        -37.14970016479492
      ],
      "type": "VEC3",
      "bufferView": 0,
      "byteOffset": 115608
    },
    {
      "name": "AM84_027_02_1_normals",
      "componentType": 5126,
      "count": 106,
      "min": [
        0,
        1,
        0
      ],
      "max": [
        0,
        1,
        0
      ],
      "type": "VEC3",
      "bufferView": 0,
      "byteOffset": 281088
    },
    {
      "name": "AM84_027_02_1_texcoords",
      "componentType": 5126,
      "count": 106,
      "min": [
        -1.657099962234497,
        -1.657099962234497
      ],
      "max": [
        2.657099962234497,
        2.657099962234497
      ],
      "type": "VEC2",
      "bufferView": 1,
      "byteOffset": 77072
    },
    {
      "name": "AM84_027_02_1_0_indices",
      "componentType": 5123,
      "count": 462,
      "min": [
        0
      ],
      "max": [
        105
      ],
      "type": "SCALAR",
      "bufferView": 2,
      "byteOffset": 48708
    },
    {
      "name": "AM84_027_01_1_positions",
      "componentType": 5126,
      "count": 389,
      "min": [
        -220.82139587402344,
        412.8157043457031,
        -504.3008117675781
      ],
      "max": [
        248.7003936767578,
        430.0046081542969,
        -34.778900146484375
      ],
      "type": "VEC3",
      "bufferView": 0,
      "byteOffset": 116880
    },
    {
      "name": "AM84_027_01_1_normals",
      "componentType": 5126,
      "count": 389,
      "min": [
        -0.9998000264167786,
        -1,
        -0.9998000264167786
      ],
      "max": [
        0.9998000264167786,
        1,
        0.9998000264167786
      ],
      "type": "VEC3",
      "bufferView": 0,
      "byteOffset": 282360
    },
    {
      "name": "AM84_027_01_1_texcoords",
      "componentType": 5126,
      "count": 389,
      "min": [
        0.020800000056624413,
        0
      ],
      "max": [
        1.020799994468689,
        1
      ],
      "type": "VEC2",
      "bufferView": 1,
      "byteOffset": 77920
    },
    {
      "name": "AM84_027_01_1_0_indices",
      "componentType": 5123,
      "count": 1152,
      "min": [
        0
      ],
      "max": [
        388
      ],
      "type": "SCALAR",
      "bufferView": 2,
      "byteOffset": 49632
    },
    {
      "name": "AM84_027_00_1_positions",
      "componentType": 5126,
      "count": 3661,
      "min": [
        -211.7277069091797,
        2.9351999759674072,
        -497.5663146972656
      ],
      "max": [
        233.2115936279297,
        1211.7010498046875,
        -41.513301849365234
      ],
      "type": "VEC3",
      "bufferView": 0,
      "byteOffset": 121548
    },
    {
      "name": "AM84_027_00_1_normals",
      "componentType": 5126,
      "count": 3661,
      "min": [
        -1,
        -1,
        -1
      ],
      "max": [
        1,
        1,
        1
      ],
      "type": "VEC3",
      "bufferView": 0,
      "byteOffset": 287028
    },
    {
      "name": "AM84_027_00_1_texcoords",
      "componentType": 5126,
      "count": 3661,
      "min": [
        0.0010000000474974513,
        0.002099999925121665
      ],
      "max": [
        0.9990000128746033,
        0.9990000128746033
      ],
      "type": "VEC2",
      "bufferView": 1,
      "byteOffset": 81032
    },
    {
      "name": "AM84_027_00_1_0_indices",
      "componentType": 5123,
      "count": 9066,
      "min": [
        0
      ],
      "max": [
        3660
      ],
      "type": "SCALAR",
      "bufferView": 2,
      "byteOffset": 51936
    }
  ],
  "asset": {
    "generator": "obj2gltf",
    "version": "2.0"
  },
  "buffers": [
    {
      "name": "jizhan2",
      "byteLength": 511348,
      "uri": "data:application/octet-stream;base64,"
    }
  ],
  "bufferViews": [
    {
      "name": "bufferView_0",
      "buffer": 0,
      "byteLength": 330960,
      "byteOffset": 0,
      "byteStride": 12,
      "target": 34962
    },
    {
      "name": "bufferView_1",
      "buffer": 0,
      "byteLength": 110320,
      "byteOffset": 330960,
      "byteStride": 8,
      "target": 34962
    },
    {
      "name": "bufferView_2",
      "buffer": 0,
      "byteLength": 70068,
      "byteOffset": 441280,
      "target": 34963
    }
  ],
  "materials": [
    {
      "name": "AM84_027_",
      "pbrMetallicRoughness": {
        "baseColorFactor": [
          0.5882,
          0.5882,
          0.5882,
          1
        ],
        "metallicFactor": 0,
        "roughnessFactor": 0.98
      },
      "emissiveFactor": [
        0,
        0,
        0
      ],
      "alphaMode": "OPAQUE",
      "doubleSided": false
    }
  ],
  "meshes": [
    {
      "name": "AM84_027_10_1",
      "primitives": [
        {
          "attributes": {
            "POSITION": 0,
            "NORMAL": 1,
            "TEXCOORD_0": 2
          },
          "indices": 3,
          "material": 0,
          "mode": 4
        }
      ]
    },
    {
      "name": "AM84_027_09_1",
      "primitives": [
        {
          "attributes": {
            "POSITION": 4,
            "NORMAL": 5,
            "TEXCOORD_0": 6
          },
          "indices": 7,
          "material": 0,
          "mode": 4
        }
      ]
    },
    {
      "name": "AM84_027_08_1",
      "primitives": [
        {
          "attributes": {
            "POSITION": 8,
            "NORMAL": 9,
            "TEXCOORD_0": 10
          },
          "indices": 11,
          "material": 0,
          "mode": 4
        }
      ]
    },
    {
      "name": "AM84_027_06_1",
      "primitives": [
        {
          "attributes": {
            "POSITION": 12,
            "NORMAL": 13,
            "TEXCOORD_0": 14
          },
          "indices": 15,
          "material": 0,
          "mode": 4
        }
      ]
    },
    {
      "name": "AM84_027_05_1",
      "primitives": [
        {
          "attributes": {
            "POSITION": 16,
            "NORMAL": 17,
            "TEXCOORD_0": 18
          },
          "indices": 19,
          "material": 0,
          "mode": 4
        }
      ]
    },
    {
      "name": "AM84_027_04_1",
      "primitives": [
        {
          "attributes": {
            "POSITION": 20,
            "NORMAL": 21,
            "TEXCOORD_0": 22
          },
          "indices": 23,
          "material": 0,
          "mode": 4
        }
      ]
    },
    {
      "name": "AM84_027_02_1",
      "primitives": [
        {
          "attributes": {
            "POSITION": 24,
            "NORMAL": 25,
            "TEXCOORD_0": 26
          },
          "indices": 27,
          "material": 0,
          "mode": 4
        }
      ]
    },
    {
      "name": "AM84_027_01_1",
      "primitives": [
        {
          "attributes": {
            "POSITION": 28,
            "NORMAL": 29,
            "TEXCOORD_0": 30
          },
          "indices": 31,
          "material": 0,
          "mode": 4
        }
      ]
    },
    {
      "name": "AM84_027_00_1",
      "primitives": [
        {
          "attributes": {
            "POSITION": 32,
            "NORMAL": 33,
            "TEXCOORD_0": 34
          },
          "indices": 35,
          "material": 0,
          "mode": 4
        }
      ]
    }
  ],
  "nodes": [
    {
      "name": "AM84_027_10",
      "mesh": 0
    },
    {
      "name": "AM84_027_09",
      "mesh": 1
    },
    {
      "name": "AM84_027_08",
      "mesh": 2
    },
    {
      "name": "AM84_027_06",
      "mesh": 3
    },
    {
      "name": "AM84_027_05",
      "mesh": 4
    },
    {
      "name": "AM84_027_04",
      "mesh": 5
    },
    {
      "name": "AM84_027_02",
      "mesh": 6
    },
    {
      "name": "AM84_027_01",
      "mesh": 7
    },
    {
      "name": "AM84_027_00",
      "mesh": 8
    }
  ],
  "scene": 0,
  "scenes": [
    {
      "nodes": [
        0,
        1,
        2,
        3,
        4,
        5,
        6,
        7,
        8
      ]
    }
  ]
}
